<?xml version="1.0" encoding="UTF-8"?><svg id="Layer_1" xmlns="http://www.w3.org/2000/svg" width="635.53" height="370" viewBox="0 0 635.53 370"><g id="b56a00a2-d2dc-44a7-b4cf-4533fdd5d709"><g id="b56a00a2-d2dc-44a7-b4cf-4533fdd5d709-child-0"><path d="M280.5,214.62c-7.13-2.01-9.9-6.58-12.16-20.09-.93-5.52-3.18-24.5-4.25-35.8-.47-4.92-.94-9.36-1.04-9.85-.17-.82.04-1.05,2.34-2.53,2.74-1.77,23.22-17.75,23.01-17.95-.42-.42-13.68,4.73-20.31,7.88-2.53,1.2-4.73,2.1-4.89,2-.34-.21-.41-18.11-.08-22.69l.22-3.06,2.18-1.44c3.54-2.34,25.41-20.11,26.76-21.74.24-.29-.73.01-2.23.7-5.44,2.49-20.61,9.99-23.14,11.45-1.44.83-2.75,1.51-2.89,1.51-.31,0-.25-2.33.25-9.96.65-9.88,2.52-24.07,4.59-34.74.86-4.45.86-5.28-.01-5.28-.27,0-9.13,2.68-19.69,5.95-23.36,7.24-22.04,6.88-24.96,6.88-2.88,0-5.55-.8-9.67-2.93-3.37-1.74-11.3-6.86-13.21-8.54-3.95-3.47-3.29-8.41,1.35-10.14,2.93-1.1,64.29-19.37,75.43-22.46,20.7-5.75,20.3-5.65,22.82-5.5,4.4.28,8.72,3.12,10.3,6.78,1.16,2.7,1.17,5.23.02,15.44-1.65,14.68-2.61,25.09-4.24,45.93-1.79,22.92-2.21,31.27-2.2,44.25,0,13.97.64,22.32,1.87,24.71.68,1.3,2.41,2.54,4.28,3.04,3.52.94,7.56-.54,14.9-5.46,9.25-6.2,16.96-13.01,26.17-23.11,2.53-2.78,6.11-6.65,7.94-8.61,5.25-5.62,15.88-19.37,19.02-23.62,8.52-11.53,13.31-19.1,20.22-31.96,8.95-16.65,11.97-24.93,12.04-32.95.03-3.66-.19-4.98-1.15-6.9-1.63-3.29-3.99-4.73-7.69-4.69-4.72.04-9.26,2.65-15.75,9.08-10.15,10.05-15.66,23.55-15.66,38.42,0,6.18,1.19,12.18,3.65,18.46l3.47,5.57-6.24,8.17c-3.43,4.49-6.44,8.22-6.69,8.27-.57.13-5.75-5.4-8.55-9.31-2.61-3.64-5.82-9.96-7.27-14.3-6.64-19.97-1.62-43.57,13.03-61.19,6.62-7.96,13.04-13.17,21.44-17.39,13.74-6.91,27.9-6.47,39.22,1.2,4.67,3.17,7.92,6.99,10.49,12.33,2.42,5.02,3.02,7.69,3.23,14.32.43,13.19-3.05,27.08-11.58,46.15-2.4,5.38-8.21,17.08-11.11,22.38-1.05,1.93-1.84,3.69-1.76,3.91.09.22,2.77,1.6,5.97,3.07,5.05,2.32,6,2.88,7.3,4.31,2.27,2.53,2.94,5.86,3.38,16.77l.21,5.24-.94.93c-.57.56-1.3.93-1.87.93-.85,0-5.57-1.94-21.24-8.76-3.05-1.33-5.73-2.34-5.95-2.26-.22.08-1.66,2.03-3.21,4.32-15.06,22.33-27.1,36.35-42.95,49.99-17.94,15.45-37.35,27.11-54.94,33.02-6.32,2.12-13.86,2.92-17.6,1.87Z"/></g></g><g id="f806ed29-da12-4b19-85b2-ad8637b4d7c1"><g id="c7731e01-7385-4352-87a5-d0df7e7d00d7"><path d="M100.78,365.7c-.99,0-1.98-.17-2.95-.52-.97-.35-1.67-.73-2.1-1.16l1.31-2.35c.35.31.89.64,1.62.97.73.34,1.44.51,2.12.51.87,0,1.58-.21,2.13-.62.55-.41.83-.98.83-1.7,0-.56-.15-1.05-.44-1.46-.3-.41-.66-.76-1.09-1.03-.43-.27-1.04-.61-1.83-1-.94-.46-1.58-.81-1.93-1.04-1.6-1.07-2.4-2.56-2.4-4.45,0-1.57.52-2.77,1.56-3.6,1.04-.83,2.35-1.25,3.93-1.25,1.7,0,3.14.49,4.33,1.46l-1.31,2.25c-.31-.33-.75-.61-1.32-.85-.57-.24-1.18-.36-1.82-.36-.83,0-1.47.19-1.94.56s-.71.91-.71,1.64c0,.51.15.97.45,1.37.29.41.67.76,1.12,1.06.45.29,1.07.65,1.84,1.08.75.41,1.32.74,1.71.98.39.24.76.52,1.11.85.48.43.87.95,1.17,1.54.29.59.44,1.24.44,1.95,0,1.11-.25,2.05-.75,2.82-.51.77-1.2,1.36-2.08,1.75-.88.4-1.88.6-3,.6h0ZM121.19,349.71h-4.65v-2.42h12.09v2.42h-4.7v15.75h-2.74v-15.75ZM145.37,347.26l8.75,18.2h-3.19l-1.55-3.56h-8.34l-1.55,3.56h-3.1l8.71-18.2h.27ZM144.13,355l-1.97,4.4h6.13l-1.96-4.37-1.06-2.5h-.05l-1.09,2.47ZM173.63,365.45l-3.66-6.87c-.76.03-1.44.05-2.03.05h-.69v6.82h-2.69v-18.17h4.13c2.09,0,3.81.43,5.16,1.29,1.35.87,2.03,2.27,2.03,4.22,0,1.22-.28,2.27-.85,3.15-.57.89-1.41,1.57-2.54,2.04l4.33,7.47h-3.19ZM169.01,356.39c1.61,0,2.72-.35,3.32-1.06.61-.7.91-1.53.91-2.5,0-2.16-1.44-3.24-4.33-3.24h-1.66v6.8h1.76ZM191,349.71h-4.65v-2.42h12.1v2.42h-4.7v15.75h-2.75v-15.75ZM227.57,345.01h2.38v25h-2.38v-25ZM260.22,347.29h4.63c2.6,0,4.33.44,5.19,1.31.86.87,1.29,1.93,1.29,3.16,0,.83-.18,1.61-.55,2.34-.36.73-.94,1.28-1.73,1.64,1.17.3,2.03.82,2.58,1.56s.83,1.61.83,2.62-.16,1.98-.49,2.77c-.33.79-1.02,1.45-2.05,1.98-1.04.53-2.54.79-4.5.79h-5.2v-18.17ZM265.29,355c1.17,0,2.01-.28,2.5-.85s.74-1.29.74-2.17c0-1.56-1.12-2.34-3.36-2.34h-2.23v5.36h2.35ZM265.79,363.13c1.5,0,2.51-.3,3.03-.91.51-.6.77-1.36.77-2.28,0-.87-.3-1.55-.89-2.03-.59-.48-1.49-.72-2.69-.72h-3.07v5.94h2.85ZM293.68,365.45l-3.66-6.87c-.76.03-1.44.05-2.03.05h-.69v6.82h-2.7v-18.17h4.13c2.09,0,3.82.43,5.17,1.29,1.35.87,2.03,2.27,2.03,4.22,0,1.22-.29,2.27-.86,3.15-.57.89-1.41,1.57-2.53,2.04l4.33,7.47h-3.19ZM289.05,356.39c1.62,0,2.73-.35,3.33-1.06.6-.7.9-1.53.9-2.5,0-2.16-1.44-3.24-4.33-3.24h-1.65v6.8h1.75ZM315.24,347.26l8.75,18.2h-3.19l-1.56-3.56h-8.33l-1.56,3.56h-3.09l8.71-18.2h.27ZM314,355l-1.98,4.4h6.14l-1.96-4.37-1.06-2.5h-.05l-1.09,2.47ZM337.11,353.69l.07,1.98v9.79h-2.77v-18.2h.35l10.68,11.92-.1-2.08v-9.81h2.77v18.17h-.37l-10.63-11.77ZM360.87,347.29h4.38c3.66,0,6.22.86,7.67,2.59,1.46,1.73,2.19,3.79,2.19,6.18,0,1.67-.31,3.21-.94,4.62s-1.66,2.55-3.1,3.44-3.33,1.34-5.67,1.34h-4.53v-18.17ZM365.69,363c2.27,0,3.93-.65,4.96-1.94s1.54-2.92,1.54-4.88-.52-3.47-1.55-4.68c-1.04-1.2-2.69-1.8-4.95-1.8h-2.05v13.3h2.05ZM404.33,345.01h2.37v25h-2.37v-25ZM445.47,365.7c-1.79,0-3.4-.41-4.82-1.24s-2.53-1.96-3.33-3.4-1.2-3.06-1.2-4.86.41-3.32,1.22-4.72,1.93-2.5,3.36-3.29,3.05-1.19,4.84-1.19c.97,0,1.85.09,2.64.26.78.17,1.42.37,1.91.6.5.22.84.41,1.02.58l-1.09,2.32c-1.02-.82-2.53-1.23-4.52-1.23-1.32,0-2.47.29-3.44.86-.97.58-1.72,1.36-2.23,2.35-.51.99-.76,2.09-.76,3.31,0,1.39.27,2.62.82,3.71.55,1.09,1.32,1.94,2.3,2.54.99.6,2.1.9,3.33.9.77,0,1.52-.09,2.23-.28.71-.19,1.31-.5,1.8-.91v-3.51h-3.73v-2.54h6.47v7.12c-.59.74-1.49,1.36-2.68,1.86-1.19.51-2.57.76-4.14.76h0ZM473.35,365.45l-3.66-6.87c-.76.03-1.44.05-2.03.05h-.69v6.82h-2.69v-18.17h4.13c2.09,0,3.81.43,5.16,1.29,1.35.87,2.03,2.27,2.03,4.22,0,1.22-.28,2.27-.85,3.15-.57.89-1.42,1.57-2.54,2.04l4.33,7.47h-3.19ZM468.73,356.39c1.61,0,2.72-.35,3.32-1.06.6-.7.9-1.53.9-2.5,0-2.16-1.44-3.24-4.32-3.24h-1.66v6.8h1.76ZM496.62,365.7c-1.65,0-3.17-.38-4.56-1.15-1.39-.77-2.5-1.86-3.33-3.28-.83-1.41-1.24-3.06-1.24-4.94s.41-3.55,1.24-4.96,1.94-2.5,3.33-3.25c1.39-.76,2.91-1.14,4.56-1.14s3.17.38,4.56,1.14c1.39.75,2.5,1.84,3.32,3.25.83,1.41,1.24,3.06,1.24,4.96s-.41,3.53-1.24,4.94c-.82,1.42-1.93,2.51-3.32,3.28s-2.91,1.15-4.56,1.15ZM496.62,363.2c1.13,0,2.17-.27,3.11-.8.94-.54,1.69-1.32,2.24-2.35s.83-2.27.83-3.7-.28-2.69-.83-3.72-1.3-1.81-2.23-2.34c-.93-.53-1.97-.79-3.12-.79s-2.2.26-3.14.79-1.68,1.31-2.23,2.34c-.54,1.03-.81,2.27-.81,3.72s.28,2.67.84,3.7,1.31,1.81,2.26,2.35c.95.53,1.97.8,3.08.8h0ZM532.52,358.97l4.35-11.69h2.94l-7.07,18.17h-.35l-4.94-11.77-4.92,11.75h-.35l-7.07-18.15h2.94l4.36,11.69,4.99-11.79h.15l4.97,11.79Z"/></g></g><g id="_4afbbd90-1ef7-4f63-8964-6e3150cde0c3"><g id="d60f33cd-8413-4700-a533-953dffa54c26"><path d="M72.14,279.11c0,4.79-.92,9.32-2.77,13.59-1.85,4.28-4.39,8-7.61,11.15-3.22,3.16-7.03,5.66-11.44,7.51-4.4,1.85-9.18,2.78-14.35,2.78s-9.95-.91-14.36-2.73c-4.4-1.82-8.2-4.31-11.39-7.46-3.19-3.16-5.69-6.86-7.51-11.1-1.81-4.25-2.72-8.76-2.72-13.54s.91-9.3,2.72-13.55c1.82-4.24,4.34-7.94,7.56-11.1,3.23-3.15,7.04-5.64,11.44-7.46,4.4-1.82,9.18-2.73,14.35-2.73s9.95.91,14.36,2.73c4.4,1.82,8.21,4.29,11.43,7.42,3.23,3.12,5.75,6.79,7.56,11,1.82,4.21,2.73,8.71,2.73,13.49h0ZM53.1,279.31c0-2.43-.42-4.72-1.25-6.89s-1.99-4.09-3.49-5.75c-1.5-1.65-3.3-2.98-5.41-3.97-2.1-.99-4.43-1.48-6.98-1.48s-4.87.48-6.94,1.43c-2.07.96-3.84,2.25-5.31,3.88s-2.62,3.52-3.45,5.69c-.83,2.17-1.24,4.47-1.24,6.89s.41,4.74,1.24,6.94,2,4.15,3.5,5.84,3.3,3.03,5.4,4.02c2.11.99,4.4,1.48,6.89,1.48s4.88-.49,6.99-1.48c2.11-.99,3.89-2.31,5.36-3.97s2.61-3.57,3.44-5.74c.83-2.17,1.25-4.47,1.25-6.89h0ZM94.25,262.08h-20.1v-16.27h58.75v16.27h-20.1v50.71h-18.56v-50.71ZM170.99,288.21l15.21-42.39h20.39l-27.18,67.46h-17.23l-27.17-67.46h20.76l15.22,42.39ZM228.59,312.8l28.52-67.46h17.89l28.52,67.46h-19.9l-4.89-11.96h-25.83l-4.79,11.96h-19.52ZM258.34,286.39h15.03l-7.47-19.05-7.56,19.05ZM353.74,287.25h-13.2v-13.59h30.81v3.83c0,7.21-.92,13.17-2.77,17.89-1.85,4.72-4.25,8.47-7.18,11.25-2.93,2.77-6.25,4.72-9.95,5.84-3.71,1.11-7.41,1.67-11.11,1.67-4.72,0-9.18-.86-13.39-2.58-4.21-1.73-7.88-4.14-11.01-7.23s-5.6-6.78-7.42-11.05c-1.81-4.27-2.72-8.93-2.72-13.97s.91-9.48,2.72-13.69c1.82-4.21,4.33-7.9,7.52-11.05,3.19-3.16,7-5.63,11.43-7.42s9.24-2.68,14.41-2.68c3.25,0,6.51.29,9.76.86s6.06,1.37,8.42,2.4v19.61c-2.43-2.04-5.11-3.6-8.04-4.69-2.93-1.08-5.96-1.62-9.09-1.62-2.68,0-5.12.48-7.32,1.43-2.2.96-4.1,2.27-5.7,3.93-1.59,1.65-2.84,3.6-3.73,5.83-.89,2.23-1.34,4.63-1.34,7.18,0,2.75.43,5.27,1.29,7.56.86,2.3,2.04,4.28,3.54,5.93,1.5,1.66,3.26,2.95,5.27,3.88,2.01.93,4.13,1.39,6.36,1.39,1.28,0,2.65-.19,4.12-.58,1.47-.38,2.82-1,4.06-1.86,1.25-.86,2.27-1.98,3.07-3.35.79-1.37,1.19-3.08,1.19-5.12h0ZM432.97,261.6h-35.5v10.15h32.15v14.64h-32.15v10.62h35.97v15.79h-54.35v-66.98h53.87v15.79ZM486.93,312.8l-28.61-36.74v36.74h-18.37v-66.98h17.32l27.56,35.41v-35.41h18.37v66.98h-16.27ZM565.4,289.07v18.56c-3.13,2.17-6.43,3.8-9.91,4.88-3.47,1.09-7.32,1.63-11.53,1.63-4.79,0-9.28-.88-13.49-2.63-4.21-1.75-7.87-4.18-10.96-7.28-3.09-3.09-5.55-6.78-7.37-11.05s-2.73-8.9-2.73-13.87.89-9.48,2.68-13.69c1.79-4.21,4.24-7.9,7.37-11.05,3.13-3.16,6.86-5.63,11.2-7.42s9.03-2.68,14.07-2.68c4.21,0,7.97.53,11.29,1.58,3.31,1.05,6.28,2.5,8.9,4.35v18.86c-2.23-2.23-4.93-4.1-8.09-5.6-3.16-1.5-6.62-2.25-10.38-2.25-2.81,0-5.33.46-7.56,1.39-2.23.93-4.12,2.19-5.65,3.78s-2.69,3.47-3.49,5.64-1.2,4.47-1.2,6.89c0,2.55.4,4.93,1.2,7.13.8,2.21,1.96,4.12,3.49,5.75,1.53,1.63,3.4,2.9,5.6,3.82,2.2.93,4.74,1.39,7.61,1.39,3.57,0,6.89-.67,9.95-2.01s6.06-3.38,9-6.12h0ZM565.97,245.82h21.15l13.78,24.4,13.88-24.4h20.76l-25.45,41.62v25.36h-18.66v-25.07l-25.46-41.91Z"/></g></g></svg>