<?xml version="1.0" encoding="UTF-8"?>
<svg id="Layer_1" xmlns="http://www.w3.org/2000/svg" version="1.1" viewBox="0 0 425 180">
  <!-- Generator: Adobe Illustrator 29.5.1, SVG Export Plug-In . SVG Version: 2.1.0 Build 141)  -->
  <defs>
    <style>
      .st0 {
        fill: #262827;
      }

      .st1 {
        stroke: #262827;
        stroke-miterlimit: 10;
      }
    </style>
  </defs>
  <g id="d078aaab-94b9-4322-ac5e-c4c2d4238b2b">
    <g id="d078aaab-94b9-4322-ac5e-c4c2d4238b2b-child-0">
      <path d="M0,90C0,40.4,38.6.2,86.2.2s86.2,40.2,86.2,89.8-38.6,89.8-86.2,89.8S0,139.6,0,90Z"/>
    </g>
  </g>
  <g id="d5fe298a-e653-4155-8f0c-7e26486e37f0">
    <g id="d5fe298a-e653-4155-8f0c-7e26486e37f0-child-0">
      <path class="st0" d="M59.7,154.8c-4-1.1-5.5-3.7-6.8-11.2-.5-3.1-1.8-13.6-2.4-19.9-.3-2.7-.5-5.2-.6-5.5,0-.5,0-.6,1.3-1.4,1.5-1,12.9-9.9,12.8-10-.2-.2-7.6,2.6-11.3,4.4-1.4.7-2.6,1.2-2.7,1.1-.2-.1-.2-10.1,0-12.6v-1.7c.1,0,1.3-.8,1.3-.8,2-1.3,14.1-11.2,14.9-12.1.1-.2-.4,0-1.2.4-3,1.4-11.5,5.6-12.9,6.4-.8.5-1.5.8-1.6.8-.2,0-.1-1.3.1-5.5.4-5.5,1.4-13.4,2.6-19.3.5-2.5.5-2.9,0-2.9s-5.1,1.5-11,3.3c-13,4-12.3,3.8-13.9,3.8-1.6,0-3.1-.4-5.4-1.6-1.9-1-6.3-3.8-7.4-4.8-2.2-1.9-1.8-4.7.8-5.6,1.6-.6,35.8-10.8,42-12.5,11.5-3.2,11.3-3.1,12.7-3.1,2.4.2,4.9,1.7,5.7,3.8.6,1.5.6,2.9,0,8.6-.9,8.2-1.5,14-2.4,25.6-1,12.8-1.2,17.4-1.2,24.6,0,7.8.4,12.4,1,13.8.4.7,1.3,1.4,2.4,1.7,2,.5,4.2-.3,8.3-3,5.1-3.5,9.4-7.2,14.6-12.9,1.4-1.5,3.4-3.7,4.4-4.8,2.9-3.1,8.8-10.8,10.6-13.1,4.7-6.4,7.4-10.6,11.3-17.8,5-9.3,6.7-13.9,6.7-18.3,0-2-.1-2.8-.6-3.8-.9-1.8-2.2-2.6-4.3-2.6-2.6,0-5.2,1.5-8.8,5.1-5.7,5.6-8.7,13.1-8.7,21.4s.7,6.8,2,10.3l1.9,3.1-3.5,4.5c-1.9,2.5-3.6,4.6-3.7,4.6-.3,0-3.2-3-4.8-5.2-1.5-2-3.2-5.5-4-8-3.7-11.1-.9-24.3,7.2-34.1,3.7-4.4,7.3-7.3,11.9-9.7,7.6-3.8,15.5-3.6,21.8.7,2.6,1.8,4.4,3.9,5.8,6.9,1.3,2.8,1.7,4.3,1.8,8,.2,7.3-1.7,15.1-6.4,25.7-1.3,3-4.6,9.5-6.2,12.5-.6,1.1-1,2.1-1,2.2,0,.1,1.5.9,3.3,1.7,2.8,1.3,3.3,1.6,4.1,2.4,1.3,1.4,1.6,3.3,1.9,9.3v2.9c.1,0-.4.5-.4.5-.3.3-.7.5-1,.5-.5,0-3.1-1.1-11.8-4.9-1.7-.7-3.2-1.3-3.3-1.3-.1,0-.9,1.1-1.8,2.4-8.4,12.4-15.1,20.2-23.9,27.8-10,8.6-20.8,15.1-30.6,18.4-3.5,1.2-7.7,1.6-9.8,1Z"/>
    </g>
  </g>
  <g id="_x33_2be26f8-b587-47ce-8bf9-70fa135e42ea">
    <g id="_x33_2be26f8-b587-47ce-8bf9-70fa135e42ea-child-0">
      <path class="st1" d="M0,90C0,40.4,38.6.2,86.2.2s86.2,40.2,86.2,89.8-38.6,89.8-86.2,89.8S0,139.6,0,90Z"/>
    </g>
  </g>
  <g id="_x37_3a89f76-44cf-452a-8e6e-d052a2a0c4e7">
    <g id="_x37_3a89f76-44cf-452a-8e6e-d052a2a0c4e7-child-0">
      <path class="st0" d="M59.7,154.8c-4-1.1-5.5-3.7-6.8-11.2-.5-3.1-1.8-13.6-2.4-19.9-.3-2.7-.5-5.2-.6-5.5,0-.5,0-.6,1.3-1.4,1.5-1,12.9-9.9,12.8-10-.2-.2-7.6,2.6-11.3,4.4-1.4.7-2.6,1.2-2.7,1.1-.2-.1-.2-10.1,0-12.6v-1.7c.1,0,1.3-.8,1.3-.8,2-1.3,14.1-11.2,14.9-12.1.1-.2-.4,0-1.2.4-3,1.4-11.5,5.6-12.9,6.4-.8.5-1.5.8-1.6.8-.2,0-.1-1.3.1-5.5.4-5.5,1.4-13.4,2.6-19.3.5-2.5.5-2.9,0-2.9s-5.1,1.5-11,3.3c-13,4-12.3,3.8-13.9,3.8-1.6,0-3.1-.4-5.4-1.6-1.9-1-6.3-3.8-7.4-4.8-2.2-1.9-1.8-4.7.8-5.6,1.6-.6,35.8-10.8,42-12.5,11.5-3.2,11.3-3.1,12.7-3.1,2.4.2,4.9,1.7,5.7,3.8.6,1.5.6,2.9,0,8.6-.9,8.2-1.5,14-2.4,25.6-1,12.8-1.2,17.4-1.2,24.6,0,7.8.4,12.4,1,13.8.4.7,1.3,1.4,2.4,1.7,2,.5,4.2-.3,8.3-3,5.1-3.5,9.4-7.2,14.6-12.9,1.4-1.5,3.4-3.7,4.4-4.8,2.9-3.1,8.8-10.8,10.6-13.1,4.7-6.4,7.4-10.6,11.3-17.8,5-9.3,6.7-13.9,6.7-18.3,0-2-.1-2.8-.6-3.8-.9-1.8-2.2-2.6-4.3-2.6-2.6,0-5.2,1.5-8.8,5.1-5.7,5.6-8.7,13.1-8.7,21.4s.7,6.8,2,10.3l1.9,3.1-3.5,4.5c-1.9,2.5-3.6,4.6-3.7,4.6-.3,0-3.2-3-4.8-5.2-1.5-2-3.2-5.5-4-8-3.7-11.1-.9-24.3,7.2-34.1,3.7-4.4,7.3-7.3,11.9-9.7,7.6-3.8,15.5-3.6,21.8.7,2.6,1.8,4.4,3.9,5.8,6.9,1.3,2.8,1.7,4.3,1.8,8,.2,7.3-1.7,15.1-6.4,25.7-1.3,3-4.6,9.5-6.2,12.5-.6,1.1-1,2.1-1,2.2,0,.1,1.5.9,3.3,1.7,2.8,1.3,3.3,1.6,4.1,2.4,1.3,1.4,1.6,3.3,1.9,9.3v2.9c.1,0-.4.5-.4.5-.3.3-.7.5-1,.5-.5,0-3.1-1.1-11.8-4.9-1.7-.7-3.2-1.3-3.3-1.3-.1,0-.9,1.1-1.8,2.4-8.4,12.4-15.1,20.2-23.9,27.8-10,8.6-20.8,15.1-30.6,18.4-3.5,1.2-7.7,1.6-9.8,1Z"/>
    </g>
  </g>
  <g id="_x30_d08c8b8-6dfc-4a44-80b9-7f81315abf9d">
    <g id="e4d898ad-7310-409a-a9e2-b89d627a9a35">
      <path d="M180.9,151.8c-.6,0-1.2,0-1.7-.3-.6-.2-1-.4-1.2-.7l.8-1.3c.2.2.5.4,1,.5.4.2.9.3,1.2.3s.9-.1,1.3-.3c.3-.2.5-.6.5-1s0-.6-.3-.8-.4-.4-.6-.6c-.2-.1-.6-.3-1.1-.6-.6-.3-.9-.4-1.1-.6-.9-.6-1.4-1.4-1.4-2.5s.3-1.6.9-2,1.4-.7,2.3-.7,1.9.3,2.6.8l-.8,1.3c-.2-.2-.4-.3-.8-.5-.3-.1-.7-.2-1.1-.2s-.9.1-1.1.3c-.3.2-.4.5-.4.9s0,.5.3.8.4.4.7.6c.3.2.6.4,1.1.6.4.2.8.4,1,.5.2.1.4.3.7.5.3.2.5.5.7.9.2.3.3.7.3,1.1,0,.6-.1,1.2-.4,1.6s-.7.8-1.2,1c-.5.2-1.1.3-1.8.3h0ZM192.9,142.8h-2.7v-1.4h7.1v1.4h-2.8v8.9h-1.6v-8.9ZM207.2,141.4l5.2,10.3h-1.9l-.9-2h-4.9l-.9,2h-1.8l5.1-10.3h.2ZM206.4,145.8l-1.2,2.5h3.6l-1.2-2.5-.6-1.4h0l-.6,1.4ZM223.8,151.7l-2.2-3.9c-.4,0-.9,0-1.2,0h-.4v3.9h-1.6v-10.3h2.4c1.2,0,2.2.2,3,.7.8.5,1.2,1.3,1.2,2.4s-.2,1.3-.5,1.8c-.3.5-.8.9-1.5,1.2l2.5,4.2h-1.9ZM221.1,146.6c.9,0,1.6-.2,2-.6.4-.4.5-.9.5-1.4,0-1.2-.9-1.8-2.5-1.8h-1v3.9h1ZM234,142.8h-2.7v-1.4h7.1v1.4h-2.8v8.9h-1.6v-8.9ZM245,151.8c-.3,0-.5,0-.7-.3-.2-.2-.3-.4-.3-.7s.1-.5.3-.7c.2-.2.4-.3.7-.3s.6,0,.8.3.3.4.3.7,0,.5-.3.7-.5.3-.8.3h0ZM262.3,141.4h2.7c1.5,0,2.6.2,3.1.7.5.5.7,1.1.7,1.8s-.1.9-.3,1.3c-.2.4-.6.7-1,.9.7.2,1.2.5,1.5.9s.5.9.5,1.5,0,1.1-.3,1.6c-.2.4-.6.8-1.2,1.1-.6.3-1.5.4-2.6.4h-3.1v-10.3ZM265.3,145.8c.7,0,1.2-.2,1.5-.5.3-.3.4-.7.4-1.2,0-.9-.7-1.3-2-1.3h-1.3v3h1.4ZM265.6,150.4c.9,0,1.5-.2,1.8-.5.3-.3.5-.8.5-1.3s-.2-.9-.5-1.1c-.4-.3-.9-.4-1.6-.4h-1.8v3.4h1.7ZM282,151.7l-2.2-3.9c-.4,0-.9,0-1.2,0h-.4v3.9h-1.6v-10.3h2.4c1.2,0,2.2.2,3,.7s1.2,1.3,1.2,2.4-.2,1.3-.5,1.8c-.3.5-.8.9-1.5,1.2l2.5,4.2h-1.9ZM279.3,146.6c.9,0,1.6-.2,2-.6.4-.4.5-.9.5-1.4,0-1.2-.9-1.8-2.6-1.8h-1v3.9h1ZM294.7,141.4l5.2,10.3h-1.9l-.9-2h-4.9l-.9,2h-1.8l5.1-10.3h.2ZM294,145.8l-1.2,2.5h3.6l-1.2-2.5-.6-1.4h0l-.6,1.4ZM307.6,145v1.1s0,5.5,0,5.5h-1.6v-10.3h.2l6.3,6.7v-1.2c0,0,0-5.6,0-5.6h1.6v10.3h-.2l-6.3-6.7ZM321.6,141.4h2.6c2.2,0,3.7.5,4.5,1.5.9,1,1.3,2.1,1.3,3.5s-.2,1.8-.6,2.6-1,1.4-1.8,1.9c-.8.5-2,.8-3.3.8h-2.7v-10.3ZM324.4,150.3c1.3,0,2.3-.4,2.9-1.1.6-.7.9-1.6.9-2.8s-.3-2-.9-2.6c-.6-.7-1.6-1-2.9-1h-1.2v7.5h1.2ZM337,151.8c-.3,0-.6,0-.7-.3-.2-.2-.3-.4-.3-.7s0-.5.3-.7.5-.3.8-.3.6,0,.7.3.3.4.3.7,0,.5-.3.7-.4.3-.7.3ZM359.3,151.8c-1.1,0-2-.2-2.8-.7-.8-.5-1.5-1.1-2-1.9-.5-.8-.7-1.7-.7-2.7s.2-1.9.7-2.7,1.1-1.4,2-1.9,1.8-.7,2.8-.7,1.1,0,1.5.1c.5,0,.8.2,1.1.3.3.1.5.2.6.3l-.6,1.3c-.6-.5-1.5-.7-2.7-.7s-1.4.2-2,.5-1,.8-1.3,1.3-.5,1.2-.5,1.9.2,1.5.5,2.1c.3.6.8,1.1,1.4,1.4.6.3,1.2.5,2,.5s.9,0,1.3-.2c.4-.1.8-.3,1.1-.5v-2h-2.2v-1.4h3.8v4c-.4.4-.9.8-1.6,1.1-.7.3-1.5.4-2.4.4h0ZM375.7,151.7l-2.2-3.9c-.4,0-.8,0-1.2,0h-.4v3.9h-1.6v-10.3h2.4c1.2,0,2.2.2,3,.7s1.2,1.3,1.2,2.4-.2,1.3-.5,1.8c-.3.5-.8.9-1.5,1.2l2.5,4.2h-1.9ZM373,146.6c.9,0,1.6-.2,2-.6.4-.4.5-.9.5-1.4,0-1.2-.9-1.8-2.5-1.8h-1v3.9h1ZM389.4,151.8c-1,0-1.9-.2-2.7-.6s-1.5-1-2-1.9c-.5-.8-.7-1.7-.7-2.8s.2-2,.7-2.8,1.1-1.4,2-1.8,1.7-.6,2.7-.6,1.9.2,2.7.6,1.5,1,2,1.8.7,1.7.7,2.8-.2,2-.7,2.8c-.5.8-1.1,1.4-2,1.9-.8.4-1.7.6-2.7.6ZM389.4,150.4c.7,0,1.3-.1,1.8-.4.6-.3,1-.7,1.3-1.3.3-.6.5-1.3.5-2.1s-.2-1.5-.5-2.1c-.3-.6-.8-1-1.3-1.3s-1.2-.4-1.8-.4-1.3.1-1.8.4-1,.7-1.3,1.3c-.3.6-.5,1.3-.5,2.1s.2,1.5.5,2.1c.3.6.8,1,1.3,1.3.6.3,1.2.4,1.8.4ZM410.5,148l2.6-6.6h1.7l-4.2,10.3h-.2l-2.9-6.7-2.9,6.7h-.2l-4.2-10.3h1.7l2.6,6.6,2.9-6.7h0l2.9,6.7ZM420.4,151.8c-.3,0-.5,0-.7-.3-.2-.2-.3-.4-.3-.7s.1-.5.3-.7.4-.3.7-.3.6,0,.7.3.3.4.3.7-.1.5-.3.7-.4.3-.7.3h0Z"/>
    </g>
  </g>
  <g id="_x35_28ac1cc-ed0b-431c-a9fa-775f5db2b960">
    <g id="de8f9658-92a2-40c9-bcdc-eaefe55b50f9">
      <path d="M226.6,59.7c0,2.8-.5,5.4-1.6,7.9-1.1,2.5-2.5,4.6-4.4,6.4-1.9,1.8-4.1,3.3-6.6,4.3-2.5,1.1-5.3,1.6-8.3,1.6s-5.8-.5-8.3-1.6-4.7-2.5-6.6-4.3c-1.8-1.8-3.3-4-4.3-6.4s-1.6-5.1-1.6-7.8.5-5.4,1.6-7.8c1-2.4,2.5-4.6,4.4-6.4,1.9-1.8,4.1-3.3,6.6-4.3,2.5-1,5.3-1.6,8.3-1.6s5.8.5,8.3,1.6c2.5,1,4.7,2.5,6.6,4.3,1.9,1.8,3.3,3.9,4.4,6.4,1,2.4,1.6,5,1.6,7.8ZM215.6,59.8c0-1.4-.2-2.7-.7-4s-1.1-2.4-2-3.3c-.9-1-1.9-1.7-3.1-2.3s-2.6-.9-4-.9-2.8.3-4,.8c-1.2.5-2.2,1.3-3.1,2.2-.8.9-1.5,2-2,3.3-.5,1.2-.7,2.6-.7,4s.2,2.7.7,4,1.1,2.4,2,3.4c.9,1,1.9,1.8,3.1,2.3,1.2.6,2.5.9,4,.9s2.8-.3,4-.9c1.2-.6,2.2-1.3,3.1-2.3.8-1,1.5-2.1,2-3.3s.7-2.6.7-4h0ZM240,49.8h-11.6v-9.4h34v9.4h-11.6v29.3h-10.7v-29.3ZM285.1,64.9l8.8-24.5h11.8l-15.7,39h-10l-15.7-39h12l8.8,24.5ZM183.7,128.9l16.5-39h10.3l16.5,39h-11.5l-2.8-6.9h-14.9l-2.8,6.9h-11.3ZM200.9,113.6h8.7l-4.3-11-4.4,11ZM256.7,114.1h-7.6v-7.9h17.8v2.2c0,4.2-.5,7.6-1.6,10.3-1.1,2.7-2.4,4.9-4.1,6.5-1.7,1.6-3.6,2.7-5.7,3.4-2.1.6-4.3,1-6.4,1s-5.3-.5-7.7-1.5c-2.4-1-4.5-2.4-6.4-4.2s-3.2-3.9-4.3-6.4c-1-2.5-1.6-5.2-1.6-8.1s.5-5.5,1.6-7.9,2.5-4.6,4.3-6.4c1.8-1.8,4-3.3,6.6-4.3,2.6-1,5.3-1.5,8.3-1.5s3.8.2,5.6.5c1.9.3,3.5.8,4.9,1.4v11.3c-1.4-1.2-3-2.1-4.6-2.7-1.7-.6-3.4-.9-5.3-.9s-3,.3-4.2.8-2.4,1.3-3.3,2.3-1.6,2.1-2.2,3.4c-.5,1.3-.8,2.7-.8,4.1s.2,3,.7,4.4c.5,1.3,1.2,2.5,2,3.4.9,1,1.9,1.7,3,2.2,1.2.5,2.4.8,3.7.8s1.5-.1,2.4-.3,1.6-.6,2.3-1.1,1.3-1.1,1.8-1.9c.5-.8.7-1.8.7-3h0ZM303.2,99.3h-20.5v5.9h18.6v8.5h-18.6v6.1h20.8v9.1h-31.4v-38.7h31.1v9.1ZM335.1,128.9l-16.5-21.2v21.2h-10.6v-38.7h10l15.9,20.5v-20.5h10.6v38.7h-9.4ZM381.1,115.2v10.7c-1.8,1.3-3.7,2.2-5.7,2.8-2,.6-4.2.9-6.7.9s-5.4-.5-7.8-1.5c-2.4-1-4.5-2.4-6.3-4.2-1.8-1.8-3.2-3.9-4.3-6.4s-1.6-5.1-1.6-8,.5-5.5,1.5-7.9,2.4-4.6,4.3-6.4,4-3.3,6.5-4.3,5.2-1.5,8.1-1.5,4.6.3,6.5.9c1.9.6,3.6,1.4,5.1,2.5v10.9c-1.3-1.3-2.8-2.4-4.7-3.2-1.8-.9-3.8-1.3-6-1.3s-3.1.3-4.4.8c-1.3.5-2.4,1.3-3.3,2.2-.9.9-1.6,2-2,3.3s-.7,2.6-.7,4,.2,2.8.7,4.1c.5,1.3,1.1,2.4,2,3.3.9.9,2,1.7,3.2,2.2,1.3.5,2.7.8,4.4.8s4-.4,5.8-1.2c1.8-.8,3.5-2,5.2-3.5h0ZM382.1,90.2h12.2l8,14.1,8-14.1h12l-14.7,24.1v14.7h-10.8v-14.5l-14.7-24.2Z"/>
    </g>
  </g>
  <g id="cf735325-802f-4af5-a93f-7202f4bae98b">
    <g id="cf735325-802f-4af5-a93f-7202f4bae98b-child-0">
      <path d="M298.3,74.3c0-2.9,2.3-5.2,5.2-5.2s5.2,2.3,5.2,5.2-2.3,5.2-5.2,5.2-5.2-2.3-5.2-5.2Z"/>
    </g>
  </g>
</svg>